<svg width="799" height="639" viewBox="0 0 799 639" fill="none" xmlns="http://www.w3.org/2000/svg">
<rect x="254" y="167" width="298" height="307" stroke="black" stroke-width="10"/>
<path d="M794 319.5C794 492.209 618.477 634 399.5 634C180.523 634 5 492.209 5 319.5C5 146.791 180.523 5 399.5 5C618.477 5 794 146.791 794 319.5Z" stroke="black" stroke-width="10"/>
<rect x="309" y="276" width="189" height="87" stroke="black" stroke-width="10"/>
<rect x="261.5" y="408.5" width="152" height="59" stroke="black" stroke-width="5"/>
<rect x="437.5" y="408.5" width="113" height="59" stroke="black" stroke-width="5"/>
<path d="M211.5 233.8V197.5H256.5V289.5H170.5V236.3H209H211.5V233.8Z" stroke="black" stroke-width="5"/>
<path d="M200 406H170.065L170.065 350H249.935V408.5V463H220.5V445.5V443H218H202.5V408.5V406H200Z" stroke="black" stroke-width="5"/>
<path d="M608 234H634V288.75H554.5V177H584.5V194.5V197H587H605.5V231.5V234H608Z" stroke="black" stroke-width="5"/>
<path d="M598 408V436H553.5V350.5H633.471V405.5H600.5H598V408Z" stroke="black" stroke-width="5"/>
<path d="M572.046 42.3587L566.598 56.0911L552.909 51.0993L557.902 36.9508L572.046 42.3587Z" fill="#696666" stroke="black" stroke-width="3"/>
<path d="M464.786 16.1773L462.988 30.841L448.481 29.4733L449.735 14.5219L464.786 16.1773Z" fill="#696666" stroke="black" stroke-width="3"/>
<path d="M743.845 171.618L732.322 180.863L722.889 169.758L734.223 159.926L743.845 171.618Z" fill="#696666" stroke="black" stroke-width="3"/>
<path d="M744.026 171.799L732.503 181.044L723.07 169.939L734.404 160.107L744.026 171.799Z" fill="#696666" stroke="black" stroke-width="3"/>
<path d="M668.8 96.0245L659.922 107.833L648.035 99.4052L656.585 87.076L668.8 96.0245Z" fill="#696666" stroke="black" stroke-width="3"/>
<path d="M784.953 273.854L770.506 276.942L767.062 262.784L781.604 259.087L784.953 273.854Z" fill="#696666" stroke="black" stroke-width="3"/>
<path d="M785.562 367.387L781.575 381.612L767.44 378.073L770.933 363.482L785.562 367.387Z" fill="#696666" stroke="black" stroke-width="3"/>
<path d="M742.712 466.505L734.443 478.747L722.145 470.933L730.06 458.186L742.712 466.505Z" fill="#696666" stroke="black" stroke-width="3"/>
<path d="M668.143 545.438L656.218 554.158L647.291 542.642L659.053 533.327L668.143 545.438Z" fill="#696666" stroke="black" stroke-width="3"/>
<path d="M571.728 598.526L557.9 603.727L552.391 590.237L566.222 584.421L571.728 598.526Z" fill="#696666" stroke="black" stroke-width="3"/>
<path d="M464.225 611.521L464.788 626.284L450.248 627.246L449.102 612.286L464.225 611.521Z" fill="#696666" stroke="black" stroke-width="3"/>
<path d="M356.47 612.969L353.939 627.524L339.519 625.43L341.521 610.56L356.47 612.969Z" fill="#696666" stroke="black" stroke-width="3"/>
<path d="M253.046 590.359L247.598 604.091L233.909 599.099L238.902 584.951L253.046 590.359Z" fill="#696666" stroke="black" stroke-width="3"/>
<path d="M157.442 542.679L148.545 554.474L136.671 546.029L145.24 533.712L157.442 542.679Z" fill="#696666" stroke="black" stroke-width="3"/>
<path d="M82.0817 471.072L70.3868 480.099L61.164 468.818L72.6809 459.201L82.0817 471.072Z" fill="#696666" stroke="black" stroke-width="3"/>
<path d="M35.6757 378.601L21.2234 381.665L17.8036 367.501L32.3511 363.828L35.6757 378.601Z" fill="#696666" stroke="black" stroke-width="3"/>
<path d="M37.4632 261.966L34.9077 276.516L20.4912 274.399L22.5179 259.532L37.4632 261.966Z" fill="#696666" stroke="black" stroke-width="3"/>
<path d="M81.2234 171.341L71.262 182.251L60.2307 172.731L69.9151 161.271L81.2234 171.341Z" fill="#696666" stroke="black" stroke-width="3"/>
<path d="M158.219 99.629L145.55 107.229L137.708 94.9484L150.268 86.7422L158.219 99.629Z" fill="#696666" stroke="black" stroke-width="3"/>
<path d="M247.853 37.9248L252.598 51.9156L238.935 56.9799L233.575 42.9662L247.853 37.9248Z" fill="#696666" stroke="black" stroke-width="3"/>
<path d="M355.682 14.999L356.635 29.7417L342.126 31.0882L340.585 16.1637L355.682 14.999Z" fill="#696666" stroke="black" stroke-width="3"/>
<path d="M453.912 27.2873H452.804L456.008 18.56H457.099L460.304 27.2873H459.196L456.588 19.9407H456.52L453.912 27.2873ZM454.321 23.8782H458.787V24.8157H454.321V23.8782Z" fill="white"/>
<path d="M560.057 51V42.2727H563.108C563.716 42.2727 564.217 42.3778 564.612 42.5881C565.007 42.7955 565.301 43.0753 565.494 43.4276C565.688 43.777 565.784 44.1648 565.784 44.5909C565.784 44.9659 565.717 45.2756 565.584 45.5199C565.453 45.7642 565.28 45.9574 565.064 46.0994C564.851 46.2415 564.619 46.3466 564.369 46.4148V46.5C564.636 46.517 564.905 46.6108 565.175 46.7812C565.445 46.9517 565.67 47.196 565.852 47.5142C566.034 47.8324 566.125 48.2216 566.125 48.6818C566.125 49.1193 566.026 49.5128 565.827 49.8622C565.628 50.2116 565.314 50.4886 564.885 50.6932C564.456 50.8977 563.898 51 563.21 51H560.057ZM561.114 50.0625H563.21C563.901 50.0625 564.391 49.929 564.68 49.6619C564.973 49.392 565.119 49.0653 565.119 48.6818C565.119 48.3864 565.044 48.1136 564.893 47.8636C564.743 47.6108 564.528 47.4091 564.25 47.2585C563.972 47.1051 563.642 47.0284 563.261 47.0284H561.114V50.0625ZM561.114 46.108H563.074C563.392 46.108 563.679 46.0455 563.935 45.9205C564.193 45.7955 564.398 45.6193 564.548 45.392C564.702 45.1648 564.778 44.8977 564.778 44.5909C564.778 44.2074 564.645 43.8821 564.378 43.6151C564.111 43.3452 563.688 43.2102 563.108 43.2102H561.114V46.108Z" fill="white"/>
<path d="M662.08 96H661.023C660.96 95.696 660.851 95.429 660.695 95.1989C660.541 94.9688 660.354 94.7756 660.132 94.6193C659.913 94.4602 659.67 94.3409 659.403 94.2614C659.136 94.1818 658.858 94.142 658.568 94.142C658.04 94.142 657.561 94.2756 657.132 94.5426C656.706 94.8097 656.366 95.2031 656.114 95.723C655.864 96.2429 655.739 96.8807 655.739 97.6364C655.739 98.392 655.864 99.0298 656.114 99.5497C656.366 100.07 656.706 100.463 657.132 100.73C657.561 100.997 658.04 101.131 658.568 101.131C658.858 101.131 659.136 101.091 659.403 101.011C659.67 100.932 659.913 100.814 660.132 100.658C660.354 100.499 660.541 100.304 660.695 100.074C660.851 99.8409 660.96 99.5739 661.023 99.2727H662.08C662 99.7187 661.855 100.118 661.645 100.47C661.435 100.822 661.173 101.122 660.861 101.369C660.548 101.614 660.197 101.8 659.808 101.928C659.422 102.055 659.009 102.119 658.568 102.119C657.824 102.119 657.162 101.938 656.582 101.574C656.003 101.21 655.547 100.693 655.214 100.023C654.882 99.3523 654.716 98.5568 654.716 97.6364C654.716 96.7159 654.882 95.9205 655.214 95.25C655.547 94.5795 656.003 94.0625 656.582 93.6989C657.162 93.3352 657.824 93.1534 658.568 93.1534C659.009 93.1534 659.422 93.2173 659.808 93.3452C660.197 93.473 660.548 93.6605 660.861 93.9077C661.173 94.152 661.435 94.4503 661.645 94.8026C661.855 95.152 662 95.5511 662.08 96Z" fill="white"/>
<path d="M733.75 175H731.057V166.273H733.869C734.716 166.273 735.44 166.447 736.043 166.797C736.645 167.143 737.107 167.642 737.428 168.293C737.749 168.94 737.909 169.716 737.909 170.619C737.909 171.528 737.747 172.311 737.423 172.967C737.099 173.621 736.628 174.124 736.009 174.476C735.389 174.825 734.636 175 733.75 175ZM732.114 174.062H733.682C734.403 174.062 735.001 173.923 735.476 173.645C735.95 173.366 736.304 172.97 736.537 172.456C736.77 171.942 736.886 171.33 736.886 170.619C736.886 169.915 736.771 169.308 736.541 168.8C736.311 168.288 735.967 167.896 735.51 167.624C735.053 167.348 734.483 167.21 733.801 167.21H732.114V174.062Z" fill="white"/>
<path d="M773.057 273V264.273H778.324V265.21H774.114V268.159H778.051V269.097H774.114V272.062H778.392V273H773.057Z" fill="white"/>
<path d="M774.057 377V368.273H779.29V369.21H775.114V372.159H778.898V373.097H775.114V377H774.057Z" fill="white"/>
<path d="M735.023 467C734.929 466.713 734.805 466.456 734.652 466.229C734.501 465.999 734.321 465.803 734.111 465.641C733.903 465.479 733.668 465.355 733.403 465.27C733.139 465.185 732.849 465.142 732.534 465.142C732.017 465.142 731.547 465.276 731.124 465.543C730.7 465.81 730.364 466.203 730.114 466.723C729.864 467.243 729.739 467.881 729.739 468.636C729.739 469.392 729.865 470.03 730.118 470.55C730.371 471.07 730.713 471.463 731.145 471.73C731.577 471.997 732.063 472.131 732.602 472.131C733.102 472.131 733.543 472.024 733.923 471.811C734.307 471.595 734.605 471.291 734.818 470.899C735.034 470.504 735.142 470.04 735.142 469.506L735.466 469.574H732.841V468.636H736.165V469.574C736.165 470.293 736.011 470.918 735.705 471.449C735.401 471.98 734.98 472.392 734.443 472.685C733.909 472.974 733.295 473.119 732.602 473.119C731.83 473.119 731.151 472.938 730.565 472.574C729.983 472.21 729.528 471.693 729.202 471.023C728.878 470.352 728.716 469.557 728.716 468.636C728.716 467.946 728.808 467.325 728.993 466.774C729.18 466.22 729.445 465.749 729.786 465.359C730.126 464.97 730.53 464.672 730.996 464.464C731.462 464.257 731.974 464.153 732.534 464.153C732.994 464.153 733.423 464.223 733.821 464.362C734.222 464.499 734.578 464.693 734.891 464.946C735.206 465.196 735.469 465.496 735.679 465.845C735.889 466.192 736.034 466.577 736.114 467H735.023Z" fill="white"/>
<path d="M654.057 548V539.273H655.114V543.159H659.767V539.273H660.824V548H659.767V544.097H655.114V548H654.057Z" fill="white"/>
<path d="M562.114 590.273V599H561.057V590.273H562.114Z" fill="white"/>
<path d="M458.398 615.273H459.455V621.511C459.455 622.068 459.352 622.541 459.148 622.93C458.943 623.32 458.655 623.615 458.283 623.817C457.911 624.018 457.472 624.119 456.966 624.119C456.489 624.119 456.064 624.033 455.692 623.859C455.32 623.683 455.027 623.433 454.814 623.109C454.601 622.786 454.494 622.401 454.494 621.955H455.534C455.534 622.202 455.595 622.418 455.717 622.602C455.842 622.784 456.013 622.926 456.229 623.028C456.445 623.131 456.69 623.182 456.966 623.182C457.27 623.182 457.528 623.118 457.741 622.99C457.955 622.862 458.116 622.675 458.227 622.428C458.341 622.178 458.398 621.872 458.398 621.511V615.273Z" fill="white"/>
<path d="M345.057 623V614.273H346.114V618.602H346.216L350.136 614.273H351.517L347.852 618.21L351.517 623H350.239L347.205 618.943L346.114 620.17V623H345.057Z" fill="white"/>
<path d="M241.057 599V590.273H242.114V598.062H246.17V599H241.057Z" fill="white"/>
<path d="M143.057 539.273H144.318L147.284 546.517H147.386L150.352 539.273H151.614V548H150.625V541.369H150.54L147.812 548H146.858L144.131 541.369H144.045V548H143.057V539.273Z" fill="white"/>
<path d="M74.9773 465.273V474H73.9545L69.1989 467.148H69.1136V474H68.0568V465.273H69.0795L73.8523 472.142H73.9375V465.273H74.9773Z" fill="white"/>
<path d="M30.4205 372.636C30.4205 373.557 30.2543 374.352 29.9219 375.023C29.5895 375.693 29.1335 376.21 28.554 376.574C27.9744 376.938 27.3125 377.119 26.5682 377.119C25.8239 377.119 25.1619 376.938 24.5824 376.574C24.0028 376.21 23.5469 375.693 23.2145 375.023C22.8821 374.352 22.7159 373.557 22.7159 372.636C22.7159 371.716 22.8821 370.92 23.2145 370.25C23.5469 369.58 24.0028 369.062 24.5824 368.699C25.1619 368.335 25.8239 368.153 26.5682 368.153C27.3125 368.153 27.9744 368.335 28.554 368.699C29.1335 369.062 29.5895 369.58 29.9219 370.25C30.2543 370.92 30.4205 371.716 30.4205 372.636ZM29.3977 372.636C29.3977 371.881 29.2713 371.243 29.0185 370.723C28.7685 370.203 28.429 369.81 28 369.543C27.5739 369.276 27.0966 369.142 26.5682 369.142C26.0398 369.142 25.5611 369.276 25.1321 369.543C24.706 369.81 24.3665 370.203 24.1136 370.723C23.8636 371.243 23.7386 371.881 23.7386 372.636C23.7386 373.392 23.8636 374.03 24.1136 374.55C24.3665 375.07 24.706 375.463 25.1321 375.73C25.5611 375.997 26.0398 376.131 26.5682 376.131C27.0966 376.131 27.5739 375.997 28 375.73C28.429 375.463 28.7685 375.07 29.0185 374.55C29.2713 374.03 29.3977 373.392 29.3977 372.636Z" fill="white"/>
<path d="M27.0568 273V264.273H30.0057C30.6903 264.273 31.25 264.396 31.6847 264.643C32.1222 264.888 32.446 265.219 32.6562 265.636C32.8665 266.054 32.9716 266.52 32.9716 267.034C32.9716 267.548 32.8665 268.016 32.6562 268.436C32.4489 268.857 32.1278 269.192 31.6932 269.442C31.2585 269.689 30.7017 269.812 30.0227 269.812H27.9091V268.875H29.9886C30.4574 268.875 30.8338 268.794 31.1179 268.632C31.402 268.47 31.608 268.251 31.7358 267.976C31.8665 267.697 31.9318 267.384 31.9318 267.034C31.9318 266.685 31.8665 266.372 31.7358 266.097C31.608 265.821 31.4006 265.605 31.1136 265.449C30.8267 265.29 30.446 265.21 29.9716 265.21H28.1136V273H27.0568Z" fill="white"/>
<path d="M70.2273 173.273H71.3864L72.358 174.551L72.6136 174.892L74.0625 176.818H72.9034L71.9489 175.54L71.7102 175.216L70.2273 173.273ZM74.4205 171.636C74.4205 172.557 74.2543 173.352 73.9219 174.023C73.5895 174.693 73.1335 175.21 72.554 175.574C71.9744 175.938 71.3125 176.119 70.5682 176.119C69.8239 176.119 69.1619 175.938 68.5824 175.574C68.0028 175.21 67.5469 174.693 67.2145 174.023C66.8821 173.352 66.7159 172.557 66.7159 171.636C66.7159 170.716 66.8821 169.92 67.2145 169.25C67.5469 168.58 68.0028 168.062 68.5824 167.699C69.1619 167.335 69.8239 167.153 70.5682 167.153C71.3125 167.153 71.9744 167.335 72.554 167.699C73.1335 168.062 73.5895 168.58 73.9219 169.25C74.2543 169.92 74.4205 170.716 74.4205 171.636ZM73.3977 171.636C73.3977 170.881 73.2713 170.243 73.0185 169.723C72.7685 169.203 72.429 168.81 72 168.543C71.5739 168.276 71.0966 168.142 70.5682 168.142C70.0398 168.142 69.5611 168.276 69.1321 168.543C68.706 168.81 68.3665 169.203 68.1136 169.723C67.8636 170.243 67.7386 170.881 67.7386 171.636C67.7386 172.392 67.8636 173.03 68.1136 173.55C68.3665 174.07 68.706 174.463 69.1321 174.73C69.5611 174.997 70.0398 175.131 70.5682 175.131C71.0966 175.131 71.5739 174.997 72 174.73C72.429 174.463 72.7685 174.07 73.0185 173.55C73.2713 173.03 73.3977 172.392 73.3977 171.636Z" fill="white"/>
<path d="M145.057 101V92.2727H148.006C148.688 92.2727 149.247 92.3892 149.685 92.6222C150.122 92.8523 150.446 93.169 150.656 93.5724C150.866 93.9759 150.972 94.4347 150.972 94.9489C150.972 95.4631 150.866 95.919 150.656 96.3168C150.446 96.7145 150.124 97.027 149.689 97.2543C149.254 97.4787 148.699 97.5909 148.023 97.5909H145.636V96.6364H147.989C148.455 96.6364 148.83 96.5682 149.114 96.4318C149.401 96.2955 149.608 96.1023 149.736 95.8523C149.866 95.5994 149.932 95.2983 149.932 94.9489C149.932 94.5994 149.866 94.294 149.736 94.0327C149.605 93.7713 149.396 93.5696 149.109 93.4276C148.822 93.2827 148.443 93.2102 147.972 93.2102H146.114V101H145.057ZM149.165 97.0795L151.312 101H150.085L147.972 97.0795H149.165Z" fill="white"/>
<path d="M244.83 45.4545C244.778 45.0227 244.571 44.6875 244.207 44.4489C243.844 44.2102 243.398 44.0909 242.869 44.0909C242.483 44.0909 242.145 44.1534 241.855 44.2784C241.568 44.4034 241.344 44.5753 241.182 44.794C241.023 45.0128 240.943 45.2614 240.943 45.5398C240.943 45.7727 240.999 45.973 241.109 46.1406C241.223 46.3054 241.368 46.4432 241.544 46.554C241.72 46.6619 241.905 46.7514 242.098 46.8224C242.291 46.8906 242.469 46.946 242.631 46.9886L243.517 47.2273C243.744 47.2869 243.997 47.3693 244.276 47.4744C244.557 47.5795 244.825 47.723 245.081 47.9048C245.339 48.0838 245.553 48.3139 245.72 48.5952C245.888 48.8764 245.972 49.2216 245.972 49.6307C245.972 50.1023 245.848 50.5284 245.601 50.9091C245.357 51.2898 244.999 51.5923 244.527 51.8168C244.058 52.0412 243.489 52.1534 242.818 52.1534C242.193 52.1534 241.652 52.0526 241.195 51.8509C240.74 51.6491 240.382 51.3679 240.121 51.0071C239.862 50.6463 239.716 50.2273 239.682 49.75H240.773C240.801 50.0795 240.912 50.3523 241.105 50.5682C241.301 50.7812 241.548 50.9403 241.847 51.0455C242.148 51.1477 242.472 51.1989 242.818 51.1989C243.222 51.1989 243.584 51.1335 243.905 51.0028C244.226 50.8693 244.48 50.6847 244.668 50.4489C244.855 50.2102 244.949 49.9318 244.949 49.6136C244.949 49.3239 244.868 49.0881 244.706 48.9062C244.544 48.7244 244.331 48.5767 244.067 48.4631C243.803 48.3494 243.517 48.25 243.21 48.1648L242.136 47.858C241.455 47.6619 240.915 47.3821 240.517 47.0185C240.119 46.6548 239.92 46.179 239.92 45.5909C239.92 45.1023 240.053 44.6761 240.317 44.3125C240.584 43.946 240.942 43.6619 241.391 43.4602C241.842 43.2557 242.347 43.1534 242.903 43.1534C243.466 43.1534 243.966 43.2543 244.403 43.456C244.841 43.6548 245.188 43.9276 245.443 44.2741C245.702 44.6207 245.838 45.0142 245.852 45.4545H244.83Z" fill="white"/>
<path d="M345.58 19.2102V18.2727H352.125V19.2102H349.381V27H348.324V19.2102H345.58Z" fill="white"/>
</svg>
